<svg width="25" height="24" viewBox="0 0 25 24" fill="none" xmlns="http://www.w3.org/2000/svg">
<path fill-rule="evenodd" clip-rule="evenodd" d="M12.125 1C13.2296 1 14.125 1.89543 14.125 3H18.125C19.7819 3 21.125 4.34315 21.125 6V19C21.125 20.6569 19.7819 22 18.125 22H6.125C4.46815 22 3.125 20.6569 3.125 19V6C3.125 4.34315 4.46815 3 6.125 3H10.125C10.125 1.89543 11.0204 1 12.125 1ZM7.125 11C7.125 10.4477 7.57272 10 8.125 10H16.125C16.6773 10 17.125 10.4477 17.125 11C17.125 11.5523 16.6773 12 16.125 12H8.125C7.57272 12 7.125 11.5523 7.125 11ZM8.125 14C7.57272 14 7.125 14.4477 7.125 15C7.125 15.5523 7.57272 16 8.125 16H12.125C12.6773 16 13.125 15.5523 13.125 15C13.125 14.4477 12.6773 14 12.125 14H8.125Z" fill="#377DFF"/>
</svg>
