<svg width="29" height="21" viewBox="0 0 29 21" fill="none" xmlns="http://www.w3.org/2000/svg">
<g clip-path="url(#clip0_1_1616)">
<path fill-rule="evenodd" clip-rule="evenodd" d="M0.875 8.92358H6.53288V18.9374H0.875V8.92358ZM19.4984 0C22.2783 0 24.5365 2.24166 24.5365 5.01144C24.5365 7.77669 22.2829 10.0229 19.4984 10.0229C16.7184 10.0229 14.4603 7.78122 14.4603 5.01144C14.4626 2.2462 16.7161 0 19.4984 0ZM20.0931 6.249C20.0931 6.06087 20.0475 5.91355 19.9541 5.80702C19.8607 5.70049 19.6966 5.59849 19.4619 5.50556C19.2295 5.41036 19.013 5.31517 18.8148 5.2177C18.6165 5.12024 18.4456 5.00691 18.3021 4.87771C18.1585 4.75078 18.0492 4.60119 17.9717 4.43346C17.8965 4.26573 17.8577 4.06174 17.8577 3.82148C17.8577 3.42029 17.9945 3.08937 18.2656 2.83098C18.5368 2.57032 18.8991 2.41846 19.3525 2.37766V1.83594H19.9222V2.38899C20.3574 2.45246 20.7015 2.63152 20.9499 2.92391C21.1982 3.2163 21.3258 3.58802 21.3258 4.03907H20.1159C20.1159 3.79201 20.068 3.60389 19.9723 3.47016C19.8766 3.33869 19.7422 3.2707 19.5645 3.2707C19.4072 3.2707 19.2842 3.32056 19.1976 3.41802C19.111 3.51549 19.0677 3.65148 19.0677 3.82601C19.0677 4.00281 19.1178 4.14107 19.2181 4.24307C19.3184 4.34733 19.4801 4.44479 19.7012 4.53999C19.9245 4.63292 20.1318 4.73038 20.3301 4.83238C20.526 4.93438 20.6969 5.04771 20.8405 5.17464C20.9841 5.30383 21.0957 5.45343 21.1755 5.62342C21.2575 5.79342 21.2985 5.99968 21.2985 6.23767C21.2985 6.64339 21.1686 6.97431 20.9111 7.23044C20.6514 7.48656 20.3005 7.63616 19.8538 7.67922V8.18241H19.2865V7.67469C18.7669 7.62029 18.3659 7.4435 18.0902 7.14204C17.8122 6.84285 17.6732 6.4462 17.6732 5.95434H18.8763C18.8763 6.22634 18.9355 6.43033 19.0563 6.57312C19.1748 6.71365 19.348 6.78392 19.569 6.78392C19.7308 6.78392 19.8584 6.73632 19.9518 6.63886C20.0452 6.54819 20.0931 6.41446 20.0931 6.249ZM7.6722 18.0965V9.72596H11.457C13.0612 10.0115 14.6654 10.8774 16.2695 11.8815H19.209C20.5397 11.9608 21.237 13.3026 19.9427 14.1844C18.9128 14.9369 17.5524 14.8938 16.1579 14.7691C15.1963 14.7215 15.1553 16.0067 16.1579 16.0112C16.5065 16.0384 16.8848 15.9568 17.2152 15.9568C18.9561 15.9546 20.387 15.6236 21.2643 14.2569L21.7041 13.2346L26.0768 11.0791C28.2643 10.3629 29.8184 12.6385 28.2074 14.2229C25.04 16.5144 21.793 18.4002 18.4707 19.9234C16.0576 21.3831 13.6445 21.3332 11.2337 19.9234L7.6722 18.0965Z" fill="#FF6968"/>
</g>
<defs>
<clipPath id="clip0_1_1616">
<rect width="28" height="21" fill="white" transform="translate(0.875)"/>
</clipPath>
</defs>
</svg>
