<svg width="18" height="14" viewBox="0 0 18 14" fill="none" xmlns="http://www.w3.org/2000/svg">
<path d="M11.7065 5.47228L15.413 3.60327C15.5371 3.54072 15.675 3.5112 15.8135 3.51749C15.9521 3.52379 16.0868 3.5657 16.2048 3.63924C16.3228 3.71279 16.4202 3.81553 16.4878 3.93771C16.5554 4.0599 16.5909 4.19748 16.591 4.33741V9.89188C16.5909 10.0318 16.5554 10.1694 16.4878 10.2916C16.4202 10.4138 16.3228 10.5165 16.2048 10.59C16.0868 10.6636 15.9521 10.7055 15.8135 10.7118C15.675 10.7181 15.5371 10.6886 15.413 10.626L11.7065 8.75701V5.47228Z" stroke="#3D3D3D" stroke-width="2.5" stroke-linecap="round" stroke-linejoin="round"/>
<path d="M10.0783 2.1875H3.56567C2.66646 2.1875 1.9375 2.92281 1.9375 3.82986V10.3993C1.9375 11.3063 2.66646 12.0417 3.56567 12.0417H10.0783C10.9776 12.0417 11.7065 11.3063 11.7065 10.3993V3.82986C11.7065 2.92281 10.9776 2.1875 10.0783 2.1875Z" stroke="#3D3D3D" stroke-width="2.5" stroke-linecap="round" stroke-linejoin="round"/>
</svg>
